# xmcd
#
# Track frame offsets:
# 150
# 13544
# 27344
# 39896
# 55594
# 69340
# 83158
# 97406
# 108401
# 117145
# 130246
# 141519
# 151761
# 171302
# 181778
# 193603
#
# Disc length: 2804 seconds
#
#
# Revision: 0
# Processed by: cddbd v1.5.2PL0 Copyright (c) Steve Scherf et al.
# Submitted via: FreeRIP 2.70 
#
DISCID=cf0af210
DTITLE=Joy Adams - Classics
DYEAR=2010
DGENRE=Country
TTITLE0=Heartaches By The Number
TTITLE1=My Shoes Keep Walking Back To You
TTITLE2=Sad Movies
TTITLE3=Danny Boy
TTITLE4=57 Chevrolet
TTITLE5=Everybody's Somebody's Fool
TTITLE6=Before The Next Teardrop Falls
TTITLE7=Walk On By
TTITLE8=Hey Good Looking
TTITLE9=Lace Covered Windows
TTITLE10=Maggie
TTITLE11=Walk Right back
TTITLE12=Nobody's Child
TTITLE13=Sugar Moon
TTITLE14=Fraulien
TTITLE15=One Day At A Time
EXTD=
EXTT0=
EXTT1=
EXTT2=
EXTT3=
EXTT4=
EXTT5=
EXTT6=
EXTT7=
EXTT8=
EXTT9=
EXTT10=
EXTT11=
EXTT12=
EXTT13=
EXTT14=
EXTT15=
PLAYORDER=
